<svg xmlns="http://www.w3.org/2000/svg" width="177.628" height="40" viewBox="0 0 177.628 40"><defs><style>.a{fill:#fff}</style></defs><path class="a" d="M42.823 9.272h4.156v20.033h-4.156zM49.193 22.38a7.279 7.279 0 117.278 7.279h-.041a7.182 7.182 0 01-7.238-7.125l.001-.154zm10.426 0a3.161 3.161 0 10-3.161 3.244 3.078 3.078 0 003.138-3.017v-.227z"/><path class="a" d="M79.914 15.322v13.046c0 4.6-3.605 6.558-7.251 6.558a6.933 6.933 0 01-6.5-3.327l3.506-2.02a3.147 3.147 0 003.133 1.733 2.773 2.773 0 003.091-2.413 2.812 2.812 0 00.015-.526v-1.266a4.893 4.893 0 01-4.007 1.774 6.932 6.932 0 110-13.863 4.9 4.9 0 014.007 1.775v-1.388zm-4.006 6.585a3.327 3.327 0 10-3.463 3.186h.136a3.105 3.105 0 003.32-2.874c.007-.102.009-.207.007-.312zM82.035 22.38a7.278 7.278 0 117.278 7.279h-.014a7.2 7.2 0 01-7.265-7.125l.001-.154zm10.425 0a3.161 3.161 0 10-3.147 3.244 3.078 3.078 0 003.137-3.017v-.227zM98.349 11.905a2.468 2.468 0 112.468 2.468 2.5 2.5 0 01-2.468-2.468zm.4 3.674h4.159v13.725h-4.159zM120.536 22.185a6.932 6.932 0 01-6.569 7.276h-.043a5.156 5.156 0 01-4.159-1.677v6.779h-4.159v-19.24h4.159v1.289a5.144 5.144 0 014.159-1.663 6.932 6.932 0 016.613 7.237zm-4.16 0a3.272 3.272 0 10-3.258 3.355 3.133 3.133 0 003.263-3 2.979 2.979 0 000-.355zM133.022 25.125c0 3.161-2.773 4.506-5.712 4.506a6.018 6.018 0 01-5.906-3.272l3.577-2.024a2.245 2.245 0 002.315 1.622c.985 0 1.484-.3 1.484-.86 0-1.511-6.752-.707-6.752-5.462 0-2.994 2.523-4.492 5.379-4.492a6.017 6.017 0 015.435 2.925l-3.577 1.883a2.023 2.023 0 00-1.844-1.2c-.721 0-1.151.277-1.151.762 0 1.578 6.752.538 6.752 5.612zM147.903 15.515V29.24h-4.159v-1.289a4.725 4.725 0 01-3.909 1.705c-2.773 0-5.144-1.982-5.144-5.684v-8.457h4.159v7.833a2.274 2.274 0 002.037 2.489 2.349 2.349 0 00.362.008c1.5 0 2.551-.888 2.551-2.773v-7.557zM171.085 20.818v8.43h-4.157v-8.069c0-1.386-.652-2.246-1.969-2.246s-2.149.957-2.149 2.579v7.736h-4.162v-8.069c0-1.386-.651-2.246-1.968-2.246s-2.149.957-2.149 2.579v7.736h-4.159V15.523h4.156v1.261a4.242 4.242 0 013.688-1.636 4.062 4.062 0 013.591 1.8 4.52 4.52 0 013.979-1.8c3.242.001 5.299 2.246 5.299 5.67zM18.577 5.822V0H0v40h18.577v-5.822a14.179 14.179 0 110-28.356zM18.577 5.892v28.216a14.11 14.11 0 100-28.216zM174.578 9.487a3.05 3.05 0 11-3.05 3.05 3.05 3.05 0 013.05-3.05z"/></svg>